<?xml version="1.0" encoding="utf-8" ?>
<svg xmlns="http://www.w3.org/2000/svg" xmlns:xlink="http://www.w3.org/1999/xlink" width="2590" height="1295">
	<path fill="#65D0D2" transform="scale(2.5298 2.5298)" d="M619.471 214.41C623.775 208.957 621.787 199.609 632.895 190.403C656.976 170.447 691.954 192.072 690.604 205.813C700.778 201.659 713.011 192.619 724.414 199.492C710.88 204.489 707.279 232.007 697.89 237.094C693.279 234.052 576.067 240.443 548.019 236.935C539.466 235.865 535.01 224.586 541.159 218.17C547.703 211.341 607.274 214.656 619.471 214.41Z"/>
	<path fill="#65D0D2" transform="scale(2.5298 2.5298)" d="M309.129 163.1C325.339 137.006 353.623 135.953 371.623 160.022C392.255 138.859 422.884 143.995 433.386 171.668C445.04 153.178 468.97 158.548 472.155 179.296C481.558 179.109 542.381 171.348 530.566 194.926C526.02 203.997 514.632 201.363 506.378 201.351L337.753 201.329C333.384 201.331 309.822 200.564 307.619 201.319C302.675 196.089 292.792 172.239 286.366 171.92C277.637 171.485 271.236 195.831 264.365 201.319C229.957 192.537 244.859 135.25 285.107 144.016C296.708 146.542 302.959 153.498 309.129 163.1Z"/>
	<path fill="#2098A6" transform="scale(2.5298 2.5298)" d="M264.365 201.319C271.236 195.831 277.637 171.485 286.366 171.92C292.792 172.239 302.675 196.089 307.619 201.319C317.627 220.051 350.328 255.589 322.281 268.003L290.439 268.003C287.307 267.474 284.141 267.78 280.996 268.003C271.456 267.876 261.897 267.902 252.357 268.003L224.245 268.003C221.121 267.784 217.926 267.956 214.793 268.003L169.66 268.003C166.51 267.834 163.395 267.907 160.244 268.003C149.481 268.051 134.393 269.622 124.599 264.661C110.651 253.497 122.285 240.478 128.982 229.264L147.101 198.984C163.416 171.721 161.986 160.764 181.396 194.241C187.476 204.728 193.584 215.188 199.439 225.803C203.009 220.587 212.145 200.619 216.08 198.131C223.678 193.328 239.723 230.614 243.413 237.094C250.398 226.689 259.368 212.502 264.365 201.319Z"/>
	<path fill="#921C2D" transform="scale(2.5298 2.5298)" d="M160.244 268.003C160.238 261.757 158.96 233.771 161.63 231.021C173.622 218.669 169.635 267.057 169.66 268.003C166.51 267.834 163.395 267.907 160.244 268.003Z"/>
	<path fill="#921C2D" transform="scale(2.5298 2.5298)" d="M214.793 268.003C214.775 262.965 213.595 233.542 216.062 231.087C228.46 218.75 224.165 265.741 224.245 268.003C221.121 267.784 217.926 267.956 214.793 268.003Z"/>
	<path fill="#921C2D" transform="scale(2.5298 2.5298)" d="M280.996 268.003C283.501 263.612 277.006 228.093 284.17 226.476C295.355 223.951 290.377 260.772 290.439 268.003C287.307 267.474 284.141 267.78 280.996 268.003Z"/>
	<path fill="#2098A6" transform="scale(2.5298 2.5298)" d="M819.919 233.004C823.636 229.965 841.887 194.834 845.36 188.841C861.147 161.595 861.717 170.791 874.709 192.994L894.78 227.524C901.053 238.462 918.684 262.058 894.778 268.003C891.797 268.367 888.373 268.055 885.345 268.051L864.553 268.003C861.233 268.258 857.733 268.022 854.395 268.003C842.094 268.539 829.535 268.01 817.207 268.003C807.936 268.834 796.974 268.114 787.534 268.003C784.1 268.158 780.591 268.006 777.148 268.003C766.697 268.585 755.853 268.037 745.369 268.003L727.524 268.003C724.027 268.13 720.522 268.043 717.023 268.003C711.434 268.446 705.428 268.181 699.813 268.003C678.186 250.597 698.512 248.902 697.89 237.094C707.279 232.007 710.88 204.489 724.414 199.492L724.414 199.492C739.16 192.308 749.332 191.801 764.957 196.648C769.961 192.931 778.068 162.376 787.271 175.825C799.563 193.786 808.508 214.409 819.919 233.004Z"/>
	<path fill="#921C2D" transform="scale(2.5298 2.5298)" d="M717.023 268.003C720.91 261.089 711.817 232.777 720.462 229.655C732.318 225.374 728.226 264.094 727.524 268.003C724.027 268.13 720.522 268.043 717.023 268.003Z"/>
	<path fill="#921C2D" transform="scale(2.5298 2.5298)" d="M854.395 268.003C857.15 262.812 850.074 230.442 857.933 227.57C868.875 223.573 865.133 265.117 864.553 268.003C861.233 268.258 857.733 268.022 854.395 268.003Z"/>
	<path fill="#921C2D" transform="scale(2.5298 2.5298)" d="M777.148 268.003C781.299 261.781 771.919 229.54 780.436 226.705C792.644 222.64 788.292 264.449 787.534 268.003C784.1 268.158 780.591 268.006 777.148 268.003Z"/>
	<path fill="#65D0D2" transform="scale(2.5298 2.5298)" d="M724.414 199.492C739.16 192.308 749.332 191.801 764.957 196.648C765.028 198.51 749.39 225.596 746.135 232.98L745.369 233.004C743.533 227.316 728.662 201.862 724.414 199.492Z"/>
	<path fill="#921C2D" transform="scale(2.5298 2.5298)" d="M124.599 264.661C134.393 269.622 149.481 268.051 160.244 268.003C163.395 267.907 166.51 267.834 169.66 268.003L214.793 268.003C217.926 267.956 221.121 267.784 224.245 268.003L252.357 268.003C261.897 267.902 271.456 267.876 280.996 268.003C284.141 267.78 287.307 267.474 290.439 268.003L322.281 268.003L449.471 268.003L545.338 268.003L648.93 267.986C665.776 267.991 683.007 268.824 699.813 268.003C705.428 268.181 711.434 268.446 717.023 268.003C720.522 268.043 724.027 268.13 727.524 268.003L745.369 268.003C755.853 268.037 766.697 268.585 777.148 268.003C780.591 268.006 784.1 268.158 787.534 268.003C796.974 268.114 807.936 268.834 817.207 268.003C829.535 268.01 842.094 268.539 854.395 268.003C857.733 268.022 861.233 268.258 864.553 268.003L885.345 268.051C888.373 268.055 891.797 268.367 894.778 268.003C899.032 268.21 902.235 268.378 905.479 271.306C911.643 276.868 959.475 322.452 959.466 324.485C963.742 325.76 962.153 362.676 961.607 363.93L62.2584 363.93C62.2623 357.628 61.3473 328.325 62.2584 324.485C82.0455 308.326 106.048 283.555 124.599 264.661Z"/>
	<path fill="#65D0D2" transform="scale(2.5298 2.5298)" d="M449.471 268.003L545.338 268.003C550.271 273.552 592.307 321.63 592.533 324.485C591.781 324.916 478.586 324.483 467.074 324.485C462.252 305.805 454.732 286.848 449.471 268.003Z"/>
	<path fill="#F36337" transform="scale(2.5298 2.5298)" d="M894.778 268.003C899.032 268.21 902.235 268.378 905.479 271.306C911.643 276.868 959.475 322.452 959.466 324.485C958.608 324.972 871.516 324.473 862.751 324.473L613.177 324.497C606.666 324.511 598.839 325.645 592.533 324.485C592.307 321.63 550.271 273.552 545.338 268.003L648.93 267.986C665.776 267.991 683.007 268.824 699.813 268.003C705.428 268.181 711.434 268.446 717.023 268.003C720.522 268.043 724.027 268.13 727.524 268.003L745.369 268.003C755.853 268.037 766.697 268.585 777.148 268.003C780.591 268.006 784.1 268.158 787.534 268.003C796.974 268.114 807.936 268.834 817.207 268.003C829.535 268.01 842.094 268.539 854.395 268.003C857.733 268.022 861.233 268.258 864.553 268.003L885.345 268.051C888.373 268.055 891.797 268.367 894.778 268.003Z"/>
	<path fill="#F48C69" transform="scale(2.5298 2.5298)" d="M758.705 293.024C763.732 293.428 785.906 291.075 779.279 302.102C772.945 306.919 748.115 304.192 739.875 304.156C737.775 304.195 711.438 305.529 721.58 295.832C726.355 291.266 751.426 292.991 758.705 293.024Z"/>
	<path fill="#F48C69" transform="scale(2.5298 2.5298)" d="M614.012 293.024C623.986 293.429 659.411 291.564 665.732 294.049C671.323 296.247 671.977 302.222 665.587 304.156C657.785 305.279 621.033 304.8 614.908 303.89C608.245 302.901 609.789 295.927 614.012 293.024Z"/>
	<path fill="#F48C69" transform="scale(2.5298 2.5298)" d="M831.243 293.024C840.36 293.356 882.683 291.371 887.208 294.657C891.735 297.945 889.278 303.198 884.575 304.156C880.971 304.389 807.552 309.836 831.243 293.024Z"/>
	<path fill="#F36337" transform="scale(2.5298 2.5298)" d="M124.599 264.661C134.393 269.622 149.481 268.051 160.244 268.003C163.395 267.907 166.51 267.834 169.66 268.003L214.793 268.003C217.926 267.956 221.121 267.784 224.245 268.003L252.357 268.003C261.897 267.902 271.456 267.876 280.996 268.003C284.141 267.78 287.307 267.474 290.439 268.003L322.281 268.003L449.471 268.003C454.732 286.848 462.252 305.805 467.074 324.485L62.2584 324.485C82.0455 308.326 106.048 283.555 124.599 264.661Z"/>
	<path fill="#F48C69" transform="scale(2.5298 2.5298)" d="M355.898 293.024L390.942 292.966C395.366 292.958 426.163 290.989 410.741 304.156L376.975 304.207C370.774 304.207 364.187 304.638 358.034 303.925C350.855 303.094 351.046 296.621 355.898 293.024Z"/>
	<path fill="#F48C69" transform="scale(2.5298 2.5298)" d="M246.763 293.024C247.256 292.982 247.751 292.944 248.246 292.94L281.852 292.977C286.07 292.971 318.231 290.767 302.273 304.156L268.462 304.192C264.54 304.193 230.387 305.909 246.763 293.024Z"/>
	<path fill="#F48C69" transform="scale(2.5298 2.5298)" d="M138.274 293.024C143.285 292.862 214.854 286.705 194.434 304.156C183.939 304.979 151.319 305.397 140.578 303.955C133.507 303.006 133.939 296.876 138.274 293.024Z"/>
</svg>
